Alegreya Sans-Bold Italic.ufo
<glyph name="exclam" format="1">
  <advance width="273"/>
  <unicode hex="0021"/>
  <outline>
    <contour>
      <point x="150" y="659" type="line"/>
      <point x="137" y="644" type="line"/>
      <point x="94" y="239" type="line"/>
      <point x="106" y="226" type="line"/>
      <point x="181" y="236" type="line"/>
      <point x="267" y="650" type="line"/>
      <point x="254" y="665" type="line"/>
    </contour>
    <component base="period" xOffset="26"/>
  </outline>
</glyph>
<glyph name="one" format="1">
  <advance width="359"/>
  <unicode hex="0031"/>
  <outline>
    <contour>
      <point x="34" y="444" type="line"/>
      <point x="22" y="340" type="line"/>
      <point x="31" y="333" type="line"/>
      <point x="148" y="363" type="line"/>
      <point x="128" y="194" type="line"/>
      <point x="98" y="0" type="line"/>
      <point x="229" y="0" type="line"/>
      <point x="248" y="208" type="line"/>
      <point x="291" y="497" type="line"/>
      <point x="274" y="511" type="line"/>
    </contour>
  </outline>
</glyph>
<glyph name="two" format="1">
  <advance width="470"/>
  <unicode hex="0032"/>
  <outline>
    <contour>
      <point x="197" y="511"/>
      <point x="132" y="484"/>
      <point x="67" y="441" type="curve"/>
      <point x="76" y="340" type="line"/>
      <point x="90" y="340" type="line"/>
      <point x="135" y="378"/>
      <point x="188" y="401"/>
      <point x="230" y="401" type="curve" smooth="yes"/>
      <point x="266" y="401"/>
      <point x="283" y="384"/>
      <point x="283" y="360" type="curve" smooth="yes"/>
      <point x="283" y="325"/>
      <point x="241" y="282"/>
      <point x="171" y="218" type="curve" smooth="yes"/>
      <point x="22" y="82" type="line"/>
      <point x="12" y="3" type="line"/>
      <point x="18" y="-2" type="line"/>
      <point x="55" y="0" type="line"/>
      <point x="282" y="0" type="line"/>
      <point x="401" y="-6" type="line"/>
      <point x="430" y="99" type="line"/>
      <point x="423" y="107" type="line"/>
      <point x="332" y="99" type="line"/>
      <point x="196" y="99" type="line" smooth="yes"/>
      <point x="194" y="104" type="line"/>
      <point x="271" y="182" type="line" smooth="yes"/>
      <point x="375" y="286"/>
      <point x="416" y="338"/>
      <point x="416" y="393" type="curve" smooth="yes"/>
      <point x="416" y="467"/>
      <point x="351" y="511"/>
      <point x="265" y="511" type="curve" smooth="yes"/>
    </contour>
  </outline>
</glyph>
<glyph name="four" format="1">
  <advance width="501"/>
  <unicode hex="0034"/>
  <outline>
    <contour>
      <point x="298" y="505" type="line"/>
      <point x="11" y="150" type="line"/>
      <point x="1" y="66" type="line"/>
      <point x="8" y="55" type="line"/>
      <point x="94" y="58" type="line"/>
      <point x="336" y="58" type="line"/>
      <point x="446" y="55" type="line"/>
      <point x="463" y="146" type="line"/>
      <point x="457" y="157" type="line"/>
      <point x="125" y="157" type="line"/>
      <point x="288" y="358" type="line"/>
      <point x="297" y="358" type="line"/>
      <point x="268" y="131" type="line"/>
      <point x="235" y="-88" type="line"/>
      <point x="241" y="-96" type="line"/>
      <point x="342" y="-90" type="line"/>
      <point x="351" y="-80" type="line"/>
      <point x="367" y="108" type="line"/>
      <point x="418" y="505" type="line"/>
    </contour>
  </outline>
</glyph>
<glyph name="six" format="1">
  <advance width="483"/>
  <unicode hex="0036"/>
  <outline>
    <contour>
      <point x="371" y="596" type="line"/>
      <point x="132" y="500"/>
      <point x="30" y="337"/>
      <point x="30" y="188" type="curve" smooth="yes"/>
      <point x="30" y="67"/>
      <point x="99" y="-10"/>
      <point x="226" y="-10" type="curve" smooth="yes"/>
      <point x="386" y="-10"/>
      <point x="445" y="113"/>
      <point x="445" y="198" type="curve" smooth="yes"/>
      <point x="445" y="285"/>
      <point x="384" y="361"/>
      <point x="287" y="361" type="curve" smooth="yes"/>
      <point x="252" y="361"/>
      <point x="223" y="350"/>
      <point x="190" y="331" type="curve"/>
      <point x="170" y="358" type="line"/>
      <point x="139" y="223" type="line"/>
      <point x="175" y="253"/>
      <point x="216" y="269"/>
      <point x="251" y="269" type="curve" smooth="yes"/>
      <point x="302" y="269"/>
      <point x="326" y="240"/>
      <point x="326" y="186" type="curve" smooth="yes"/>
      <point x="326" y="132"/>
      <point x="304" y="78"/>
      <point x="231" y="78" type="curve" smooth="yes"/>
      <point x="164" y="78"/>
      <point x="148" y="124"/>
      <point x="148" y="191" type="curve" smooth="yes"/>
      <point x="148" y="324"/>
      <point x="208" y="447"/>
      <point x="461" y="525" type="curve"/>
      <point x="462" y="538" type="line"/>
      <point x="377" y="596" type="line"/>
    </contour>
  </outline>
</glyph>
<glyph name="eight" format="1">
  <advance width="493"/>
  <unicode hex="0038"/>
  <outline>
    <contour>
      <point x="163" y="594"/>
      <point x="83" y="524"/>
      <point x="83" y="422" type="curve" smooth="yes"/>
      <point x="83" y="353"/>
      <point x="117" y="319"/>
      <point x="160" y="293" type="curve"/>
      <point x="159" y="287" type="line"/>
      <point x="85" y="256"/>
      <point x="32" y="216"/>
      <point x="32" y="137" type="curve" smooth="yes"/>
      <point x="32" y="49"/>
      <point x="106" y="-9"/>
      <point x="227" y="-9" type="curve" smooth="yes"/>
      <point x="356" y="-9"/>
      <point x="441" y="64"/>
      <point x="441" y="168" type="curve" smooth="yes"/>
      <point x="441" y="243"/>
      <point x="399" y="277"/>
      <point x="348" y="304" type="curve"/>
      <point x="349" y="311" type="line"/>
      <point x="407" y="341"/>
      <point x="454" y="384"/>
      <point x="454" y="457" type="curve" smooth="yes"/>
      <point x="454" y="542"/>
      <point x="389" y="594"/>
      <point x="284" y="594" type="curve" smooth="yes"/>
    </contour>
    <contour>
      <point x="293" y="229"/>
      <point x="334" y="209"/>
      <point x="334" y="161" type="curve" smooth="yes"/>
      <point x="334" y="116"/>
      <point x="294" y="78"/>
      <point x="230" y="78" type="curve" smooth="yes"/>
      <point x="172" y="78"/>
      <point x="142" y="107"/>
      <point x="142" y="155" type="curve" smooth="yes"/>
      <point x="142" y="209"/>
      <point x="184" y="232"/>
      <point x="238" y="252" type="curve"/>
    </contour>
    <contour>
      <point x="326" y="505"/>
      <point x="351" y="482"/>
      <point x="351" y="441" type="curve" smooth="yes"/>
      <point x="351" y="393"/>
      <point x="314" y="366"/>
      <point x="270" y="343" type="curve"/>
      <point x="223" y="363"/>
      <point x="189" y="383"/>
      <point x="189" y="430" type="curve" smooth="yes"/>
      <point x="189" y="474"/>
      <point x="224" y="505"/>
      <point x="278" y="505" type="curve" smooth="yes"/>
    </contour>
  </outline>
</glyph>
<glyph name="greater" format="1">
  <advance width="503"/>
  <unicode hex="003E"/>
  <outline>
    <contour>
      <point x="74" y="396" type="line"/>
      <point x="78" y="386" type="line"/>
      <point x="376" y="267" type="line"/>
      <point x="376" y="260" type="line"/>
      <point x="48" y="146" type="line"/>
      <point x="57" y="73" type="line"/>
      <point x="68" y="64" type="line"/>
      <point x="462" y="208" type="line"/>
      <point x="474" y="313" type="line"/>
      <point x="466" y="325" type="line"/>
      <point x="110" y="470" type="line"/>
    </contour>
  </outline>
</glyph>
<glyph name="F" format="1">
  <advance width="444"/>
  <unicode hex="0046"/>
  <outline>
    <contour>
      <point x="129" y="643" type="line"/>
      <point x="79" y="192" type="line"/>
      <point x="48" y="0" type="line"/>
      <point x="180" y="0" type="line"/>
      <point x="200" y="204" type="line"/>
      <point x="262" y="643" type="line"/>
    </contour>
    <contour>
      <point x="310" y="360" type="line"/>
      <point x="188" y="362" type="line"/>
      <point x="176" y="257" type="line"/>
      <point x="287" y="258" type="line"/>
      <point x="402" y="255" type="line"/>
      <point x="424" y="353" type="line"/>
      <point x="417" y="363" type="line"/>
    </contour>
    <contour>
      <point x="217" y="643" type="line"/>
      <point x="203" y="546" type="line"/>
      <point x="204" y="538" type="line"/>
      <point x="337" y="539" type="line"/>
      <point x="484" y="533" type="line"/>
      <point x="507" y="633" type="line"/>
      <point x="501" y="643" type="line"/>
    </contour>
  </outline>
</glyph>
<glyph name="J" format="1">
  <advance width="328"/>
  <unicode hex="004A"/>
  <outline>
    <contour>
      <point x="164" y="643" type="line"/>
      <point x="116" y="200" type="line"/>
      <point x="106" y="123" type="line"/>
      <point x="97" y="55"/>
      <point x="61" y="19"/>
      <point x="-24" y="-23" type="curve"/>
      <point x="-25" y="-36" type="line"/>
      <point x="7" y="-106" type="line"/>
      <point x="157" y="-50"/>
      <point x="213" y="11"/>
      <point x="228" y="120" type="curve"/>
      <point x="236" y="212" type="line"/>
      <point x="298" y="643" type="line"/>
    </contour>
    <contour>
      <point x="58" y="643" type="line"/>
      <point x="41" y="553" type="line"/>
      <point x="49" y="544" type="line"/>
      <point x="170" y="546" type="line"/>
      <point x="181" y="643" type="line"/>
    </contour>
    <contour>
      <point x="191" y="643" type="move" name="top"/>
    </contour>
  </outline>
</glyph>
<glyph name="N" format="1">
  <advance width="678"/>
  <unicode hex="004E"/>
  <outline>
    <contour>
      <point x="531" y="638" type="line"/>
      <point x="480" y="202" type="line"/>
      <point x="471" y="202" type="line"/>
      <point x="271" y="643" type="line"/>
      <point x="130" y="643" type="line"/>
      <point x="80" y="190" type="line"/>
      <point x="49" y="0" type="line"/>
      <point x="170" y="0" type="line"/>
      <point x="192" y="221" type="line"/>
      <point x="221" y="441" type="line"/>
      <point x="230" y="441" type="line"/>
      <point x="429" y="0" type="line"/>
      <point x="571" y="0" type="line"/>
      <point x="590" y="198" type="line"/>
      <point x="654" y="646" type="line"/>
    </contour>
    <contour>
      <point x="312" y="0" type="move" name="bottom"/>
    </contour>
    <contour>
      <point x="391" y="643" type="move" name="top"/>
    </contour>
  </outline>
</glyph>
<glyph name="O" format="1">
  <advance width="631"/>
  <unicode hex="004F"/>
  <outline>
    <contour>
      <point x="155" y="652"/>
      <point x="37" y="499"/>
      <point x="37" y="263" type="curve" smooth="yes"/>
      <point x="37" y="85"/>
      <point x="131" y="-10"/>
      <point x="286" y="-10" type="curve" smooth="yes"/>
      <point x="501" y="-10"/>
      <point x="619" y="148"/>
      <point x="619" y="384" type="curve" smooth="yes"/>
      <point x="619" y="561"/>
      <point x="525" y="652"/>
      <point x="369" y="652" type="curve" smooth="yes"/>
    </contour>
    <contour>
      <point x="443" y="545"/>
      <point x="480" y="493"/>
      <point x="480" y="373" type="curve" smooth="yes"/>
      <point x="480" y="173"/>
      <point x="416" y="92"/>
      <point x="299" y="92" type="curve" smooth="yes"/>
      <point x="210" y="92"/>
      <point x="174" y="145"/>
      <point x="174" y="266" type="curve" smooth="yes"/>
      <point x="174" y="465"/>
      <point x="236" y="545"/>
      <point x="354" y="545" type="curve" smooth="yes"/>
    </contour>
    <contour>
      <point x="366" y="643" type="move" name="top"/>
    </contour>
  </outline>
</glyph>
<glyph name="W" format="1">
  <advance width="877"/>
  <unicode hex="0057"/>
  <outline>
    <contour>
      <point x="802" y="643" type="line"/>
      <point x="775" y="558" type="line"/>
      <point x="597" y="137" type="line"/>
      <point x="588" y="137" type="line"/>
      <point x="527" y="552" type="line"/>
      <point x="524" y="643" type="line"/>
      <point x="389" y="643" type="line"/>
      <point x="414" y="487" type="line"/>
      <point x="265" y="137" type="line"/>
      <point x="257" y="137" type="line"/>
      <point x="199" y="565" type="line"/>
      <point x="199" y="643" type="line"/>
      <point x="70" y="643" type="line"/>
      <point x="165" y="0" type="line"/>
      <point x="305" y="0" type="line"/>
      <point x="437" y="312" type="line"/>
      <point x="446" y="312" type="line"/>
      <point x="500" y="0" type="line"/>
      <point x="639" y="0" type="line"/>
      <point x="924" y="643" type="line"/>
    </contour>
    <contour>
      <point x="469" y="643" type="move" name="top"/>
    </contour>
  </outline>
</glyph>
<glyph name="Y" format="1">
  <advance width="543"/>
  <unicode hex="0059"/>
  <outline>
    <contour>
      <point x="459" y="643" type="line"/>
      <point x="435" y="596" type="line"/>
      <point x="287" y="352" type="line"/>
      <point x="277" y="352" type="line"/>
      <point x="201" y="600" type="line"/>
      <point x="193" y="643" type="line"/>
      <point x="56" y="643" type="line"/>
      <point x="230" y="140" type="line"/>
      <point x="273" y="140" type="line"/>
      <point x="596" y="643" type="line"/>
    </contour>
    <contour>
      <point x="207" y="277" type="line"/>
      <point x="198" y="180" type="line"/>
      <point x="168" y="0" type="line"/>
      <point x="300" y="0" type="line"/>
      <point x="317" y="180" type="line"/>
      <point x="333" y="277" type="line"/>
    </contour>
    <contour>
      <point x="323" y="643" type="move" name="top"/>
    </contour>
  </outline>
</glyph>
<glyph name="asciicircum" format="1">
  <advance width="440"/>
  <unicode hex="005E"/>
  <outline>
    <contour>
      <point x="207" y="496" type="line"/>
      <point x="194" y="489" type="line"/>
      <point x="6" y="139" type="line"/>
      <point x="76" y="112" type="line"/>
      <point x="87" y="117" type="line"/>
      <point x="242" y="405" type="line"/>
      <point x="249" y="405" type="line"/>
      <point x="328" y="117" type="line"/>
      <point x="403" y="134" type="line"/>
      <point x="413" y="146" type="line"/>
      <point x="312" y="496" type="line"/>
    </contour>
  </outline>
</glyph>
<glyph name="c" format="1">
  <advance width="353"/>
  <unicode hex="0063"/>
  <outline>
    <contour>
      <point x="101" y="472"/>
      <point x="23" y="330"/>
      <point x="23" y="169" type="curve" smooth="yes"/>
      <point x="23" y="56"/>
      <point x="62" y="7"/>
      <point x="157" y="-8" type="curve"/>
      <point x="174" y="-8" type="line"/>
      <point x="240" y="13"/>
      <point x="282" y="48"/>
      <point x="325" y="121" type="curve"/>
      <point x="286" y="171" type="line"/>
      <point x="270" y="172" type="line"/>
      <point x="236" y="111"/>
      <point x="211" y="96"/>
      <point x="187" y="96" type="curve" smooth="yes"/>
      <point x="154" y="96"/>
      <point x="140" y="122"/>
      <point x="140" y="193" type="curve" smooth="yes"/>
      <point x="140" y="311"/>
      <point x="174" y="378"/>
      <point x="235" y="378" type="curve" smooth="yes"/>
      <point x="259" y="378"/>
      <point x="274" y="368"/>
      <point x="298" y="340" type="curve"/>
      <point x="324" y="342" type="line"/>
      <point x="358" y="435" type="line"/>
      <point x="353" y="449" type="line"/>
      <point x="278" y="472" type="line"/>
    </contour>
    <contour>
      <point x="183" y="0" type="move" name="bottom"/>
    </contour>
    <contour>
      <point x="238" y="465" type="move" name="top"/>
    </contour>
  </outline>
</glyph>
<glyph name="d" format="1">
  <advance width="461"/>
  <unicode hex="0064"/>
  <outline>
    <contour>
      <point x="261" y="471" type="line"/>
      <point x="98" y="433"/>
      <point x="21" y="282"/>
      <point x="21" y="154" type="curve" smooth="yes"/>
      <point x="21" y="74"/>
      <point x="49" y="19"/>
      <point x="124" y="-9" type="curve"/>
      <point x="143" y="-9" type="line"/>
      <point x="188" y="38"/>
      <point x="228" y="94"/>
      <point x="263" y="155" type="curve"/>
      <point x="284" y="155" type="line"/>
      <point x="310" y="355" type="line"/>
      <point x="243" y="191"/>
      <point x="181" y="112"/>
      <point x="158" y="112" type="curve" smooth="yes"/>
      <point x="146" y="112"/>
      <point x="133" y="131"/>
      <point x="133" y="196" type="curve" smooth="yes"/>
      <point x="133" y="302"/>
      <point x="171" y="378"/>
      <point x="239" y="378" type="curve"/>
      <point x="340" y="344" type="line"/>
      <point x="398" y="435" type="line"/>
      <point x="267" y="471" type="line"/>
    </contour>
    <contour>
      <point x="338" y="695" type="line"/>
      <point x="335" y="591" type="line"/>
      <point x="252" y="-4" type="line"/>
      <point x="375" y="5" type="line"/>
      <point x="379" y="112" type="line"/>
      <point x="461" y="704" type="line"/>
    </contour>
    <contour>
      <point x="342" y="0" type="move" name="bottom"/>
    </contour>
    <contour>
      <point x="391" y="232" type="move" name="center"/>
    </contour>
    <contour>
      <point x="343" y="465" type="move" name="top"/>
    </contour>
    <contour>
      <point x="456" y="465" type="move" name="topright"/>
    </contour>
  </outline>
</glyph>
<glyph name="g" format="1">
  <advance width="460"/>
  <unicode hex="0067"/>
  <outline>
    <contour>
      <point x="311" y="438" type="line"/>
      <point x="307" y="357" type="line"/>
      <point x="259" y="9" type="line" smooth="yes"/>
      <point x="249" y="-70"/>
      <point x="204" y="-109"/>
      <point x="148" y="-109" type="curve" smooth="yes"/>
      <point x="99" y="-109"/>
      <point x="73" y="-79"/>
      <point x="73" y="-51" type="curve" smooth="yes"/>
      <point x="73" y="-43"/>
      <point x="76" y="-37"/>
      <point x="86" y="-29" type="curve" smooth="yes"/>
      <point x="151" y="21" type="line"/>
      <point x="89" y="67" type="line"/>
      <point x="86" y="37" type="line"/>
      <point x="-50" y="-34" type="line"/>
      <point x="-54" y="-44" type="line"/>
      <point x="-39" y="-136"/>
      <point x="21" y="-197"/>
      <point x="124" y="-197" type="curve" smooth="yes"/>
      <point x="246" y="-197"/>
      <point x="353" y="-111"/>
      <point x="374" y="43" type="curve"/>
      <point x="379" y="119" type="line"/>
      <point x="428" y="467" type="line"/>
      <point x="417" y="474" type="line"/>
    </contour>
    <contour>
      <point x="264" y="471" type="line"/>
      <point x="114" y="436"/>
      <point x="38" y="304"/>
      <point x="38" y="172" type="curve" smooth="yes"/>
      <point x="38" y="95"/>
      <point x="64" y="45"/>
      <point x="138" y="21" type="curve"/>
      <point x="150" y="21" type="line"/>
      <point x="194" y="59"/>
      <point x="235" y="110"/>
      <point x="268" y="171" type="curve"/>
      <point x="290" y="171" type="line"/>
      <point x="315" y="362" type="line"/>
      <point x="250" y="209"/>
      <point x="190" y="128"/>
      <point x="169" y="128" type="curve" smooth="yes"/>
      <point x="158" y="128"/>
      <point x="144" y="150"/>
      <point x="144" y="214" type="curve" smooth="yes"/>
      <point x="144" y="312"/>
      <point x="177" y="382"/>
      <point x="243" y="382" type="curve"/>
      <point x="342" y="349" type="line"/>
      <point x="399" y="434" type="line"/>
      <point x="269" y="471" type="line"/>
    </contour>
    <contour>
      <point x="265" y="464" type="move" name="top"/>
    </contour>
  </outline>
</glyph>
<glyph name="h" format="1">
  <advance width="495"/>
  <unicode hex="0068"/>
  <outline>
    <contour>
      <point x="340" y="468" type="line"/>
      <point x="290" y="425"/>
      <point x="247" y="371"/>
      <point x="195" y="288" type="curve"/>
      <point x="178" y="288" type="line"/>
      <point x="151" y="112" type="line"/>
      <point x="226" y="266"/>
      <point x="286" y="339"/>
      <point x="318" y="339" type="curve" smooth="yes"/>
      <point x="331" y="339"/>
      <point x="335" y="331"/>
      <point x="335" y="315" type="curve"/>
      <point x="334" y="304" type="line"/>
      <point x="285" y="-4" type="line"/>
      <point x="410" y="5" type="line"/>
      <point x="415" y="113" type="line"/>
      <point x="455" y="359" type="line"/>
      <point x="456" y="372" type="line"/>
      <point x="457" y="423"/>
      <point x="414" y="457"/>
      <point x="352" y="469" type="curve"/>
    </contour>
    <contour>
      <point x="117" y="695" type="line"/>
      <point x="115" y="591" type="line"/>
      <point x="31" y="-4" type="line"/>
      <point x="155" y="5" type="line"/>
      <point x="158" y="112" type="line"/>
      <point x="240" y="704" type="line"/>
    </contour>
    <contour>
      <point x="279" y="232" type="move" name="center"/>
    </contour>
    <contour>
      <point x="174" y="700" type="move" name="top"/>
    </contour>
  </outline>
</glyph>
<glyph name="m" format="1">
  <advance width="753"/>
  <unicode hex="006D"/>
  <outline>
    <contour>
      <point x="597" y="468" type="line"/>
      <point x="547" y="425"/>
      <point x="504" y="371"/>
      <point x="452" y="288" type="curve"/>
      <point x="435" y="288" type="line"/>
      <point x="408" y="112" type="line"/>
      <point x="483" y="266"/>
      <point x="543" y="339"/>
      <point x="575" y="339" type="curve" smooth="yes"/>
      <point x="587" y="339"/>
      <point x="592" y="331"/>
      <point x="592" y="315" type="curve"/>
      <point x="591" y="304" type="line"/>
      <point x="542" y="-4" type="line"/>
      <point x="667" y="5" type="line"/>
      <point x="671" y="113" type="line"/>
      <point x="711" y="359" type="line"/>
      <point x="712" y="372" type="line"/>
      <point x="713" y="423"/>
      <point x="670" y="457"/>
      <point x="609" y="469" type="curve"/>
    </contour>
    <contour>
      <point x="85" y="460" type="line"/>
      <point x="81" y="356" type="line"/>
      <point x="30" y="-4" type="line"/>
      <point x="153" y="5" type="line"/>
      <point x="157" y="112" type="line"/>
      <point x="206" y="469" type="line"/>
    </contour>
    <contour>
      <point x="338" y="468" type="line"/>
      <point x="288" y="425"/>
      <point x="245" y="371"/>
      <point x="193" y="288" type="curve"/>
      <point x="176" y="288" type="line"/>
      <point x="149" y="112" type="line"/>
      <point x="224" y="266"/>
      <point x="284" y="339"/>
      <point x="316" y="339" type="curve" smooth="yes"/>
      <point x="328" y="339"/>
      <point x="333" y="331"/>
      <point x="333" y="315" type="curve"/>
      <point x="332" y="304" type="line"/>
      <point x="283" y="-4" type="line"/>
      <point x="408" y="5" type="line"/>
      <point x="412" y="113" type="line"/>
      <point x="452" y="359" type="line"/>
      <point x="453" y="372" type="line"/>
      <point x="454" y="423"/>
      <point x="412" y="457"/>
      <point x="350" y="469" type="curve"/>
    </contour>
    <contour>
      <point x="217" y="10" type="move" name="ogonek"/>
    </contour>
    <contour>
      <point x="145" y="464" type="move" name="top"/>
    </contour>
  </outline>
</glyph>
<glyph name="o" format="1">
  <advance width="436"/>
  <unicode hex="006F"/>
  <outline>
    <contour>
      <point x="119" y="465"/>
      <point x="25" y="344"/>
      <point x="25" y="165" type="curve" smooth="yes"/>
      <point x="25" y="61"/>
      <point x="72" y="9"/>
      <point x="154" y="-9" type="curve"/>
      <point x="166" y="-10" type="line"/>
      <point x="319" y="1"/>
      <point x="412" y="120"/>
      <point x="412" y="308" type="curve" smooth="yes"/>
      <point x="412" y="406"/>
      <point x="364" y="457"/>
      <point x="284" y="473" type="curve"/>
      <point x="272" y="474" type="line"/>
    </contour>
    <contour>
      <point x="282" y="378"/>
      <point x="294" y="357"/>
      <point x="294" y="300" type="curve" smooth="yes"/>
      <point x="294" y="162"/>
      <point x="266" y="83"/>
      <point x="188" y="83" type="curve" smooth="yes"/>
      <point x="153" y="83"/>
      <point x="141" y="105"/>
      <point x="141" y="163" type="curve" smooth="yes"/>
      <point x="141" y="301"/>
      <point x="170" y="378"/>
      <point x="249" y="378" type="curve" smooth="yes"/>
    </contour>
    <contour>
      <point x="254" y="464" type="move" name="top"/>
    </contour>
  </outline>
</glyph>
<glyph name="q" format="1">
  <advance width="461"/>
  <unicode hex="0071"/>
  <outline>
    <contour>
      <point x="260" y="471" type="line"/>
      <point x="97" y="433"/>
      <point x="21" y="282"/>
      <point x="21" y="154" type="curve" smooth="yes"/>
      <point x="21" y="74"/>
      <point x="49" y="19"/>
      <point x="124" y="-9" type="curve"/>
      <point x="142" y="-9" type="line"/>
      <point x="187" y="38"/>
      <point x="227" y="94"/>
      <point x="262" y="155" type="curve"/>
      <point x="283" y="155" type="line"/>
      <point x="308" y="355" type="line"/>
      <point x="242" y="191"/>
      <point x="180" y="112"/>
      <point x="158" y="112" type="curve" smooth="yes"/>
      <point x="145" y="112"/>
      <point x="133" y="132"/>
      <point x="133" y="196" type="curve" smooth="yes"/>
      <point x="133" y="302"/>
      <point x="170" y="378"/>
      <point x="238" y="378" type="curve"/>
      <point x="339" y="344" type="line"/>
      <point x="397" y="435" type="line"/>
      <point x="265" y="471" type="line"/>
    </contour>
    <contour>
      <point x="307" y="439" type="line"/>
      <point x="302" y="354" type="line"/>
      <point x="226" y="-194" type="line"/>
      <point x="349" y="-185" type="line"/>
      <point x="353" y="-77" type="line"/>
      <point x="428" y="467" type="line"/>
      <point x="417" y="474" type="line"/>
    </contour>
  </outline>
</glyph>
<glyph name="x" format="1">
  <advance width="468"/>
  <unicode hex="0078"/>
  <outline>
    <contour>
      <point x="473" y="465" type="line"/>
      <point x="344" y="465" type="line"/>
      <point x="321" y="420" type="line"/>
      <point x="249" y="319" type="line"/>
      <point x="203" y="425" type="line"/>
      <point x="189" y="472" type="line"/>
      <point x="58" y="460" type="line"/>
      <point x="154" y="240" type="line"/>
      <point x="-14" y="0" type="line"/>
      <point x="120" y="0" type="line"/>
      <point x="145" y="53" type="line"/>
      <point x="221" y="160" type="line"/>
      <point x="267" y="52" type="line"/>
      <point x="282" y="-7" type="line"/>
      <point x="418" y="4" type="line"/>
      <point x="308" y="232" type="line"/>
    </contour>
  </outline>
</glyph>
<glyph name="braceleft" format="1">
  <advance width="295"/>
  <unicode hex="007B"/>
  <outline>
    <contour>
      <point x="169" y="657"/>
      <point x="115" y="607"/>
      <point x="115" y="506" type="curve" smooth="yes"/>
      <point x="115" y="471"/>
      <point x="120" y="428"/>
      <point x="120" y="399" type="curve" smooth="yes"/>
      <point x="120" y="343"/>
      <point x="95" y="312"/>
      <point x="39" y="298" type="curve"/>
      <point x="32" y="238" type="line"/>
      <point x="73" y="227"/>
      <point x="93" y="203"/>
      <point x="93" y="168" type="curve" smooth="yes"/>
      <point x="93" y="120"/>
      <point x="51" y="48"/>
      <point x="51" y="-19" type="curve" smooth="yes"/>
      <point x="51" y="-84"/>
      <point x="92" y="-120"/>
      <point x="171" y="-120" type="curve" smooth="yes"/>
      <point x="194" y="-120"/>
      <point x="214" y="-117"/>
      <point x="236" y="-111" type="curve"/>
      <point x="243" y="-102" type="line"/>
      <point x="240" y="-36" type="line"/>
      <point x="226" y="-39"/>
      <point x="216" y="-41"/>
      <point x="204" y="-41" type="curve" smooth="yes"/>
      <point x="171" y="-41"/>
      <point x="155" y="-24"/>
      <point x="155" y="10" type="curve" smooth="yes"/>
      <point x="155" y="61"/>
      <point x="198" y="124"/>
      <point x="198" y="176" type="curve" smooth="yes"/>
      <point x="198" y="214"/>
      <point x="179" y="247"/>
      <point x="141" y="266" type="curve"/>
      <point x="142" y="271" type="line"/>
      <point x="195" y="294"/>
      <point x="224" y="335"/>
      <point x="224" y="391" type="curve" smooth="yes"/>
      <point x="224" y="422"/>
      <point x="216" y="464"/>
      <point x="216" y="496" type="curve" smooth="yes"/>
      <point x="216" y="550"/>
      <point x="237" y="577"/>
      <point x="280" y="577" type="curve" smooth="yes"/>
      <point x="292" y="577"/>
      <point x="302" y="575"/>
      <point x="314" y="572" type="curve"/>
      <point x="333" y="638" type="line"/>
      <point x="329" y="648" type="line"/>
      <point x="309" y="653"/>
      <point x="290" y="657"/>
      <point x="267" y="657" type="curve" smooth="yes"/>
    </contour>
  </outline>
</glyph>
<glyph name="bar" format="1">
  <advance width="308"/>
  <unicode hex="007C"/>
  <outline>
    <contour>
      <point x="174" y="795" type="line"/>
      <point x="110" y="281" type="line"/>
      <point x="45" y="-248" type="line"/>
      <point x="53" y="-260" type="line"/>
      <point x="143" y="-253" type="line"/>
      <point x="209" y="290" type="line"/>
      <point x="274" y="794" type="line"/>
      <point x="266" y="803" type="line"/>
    </contour>
  </outline>
</glyph>
<glyph name="acute" format="1">
  <advance width="390"/>
  <unicode hex="00B4"/>
  <outline>
    <contour>
      <point x="242" y="668"/>
      <point x="185" y="620"/>
      <point x="121" y="570" type="curve"/>
      <point x="152" y="521" type="line"/>
      <point x="165" y="520" type="line"/>
      <point x="228" y="557"/>
      <point x="289" y="595"/>
      <point x="358" y="639" type="curve"/>
      <point x="360" y="651" type="line"/>
      <point x="313" y="721" type="line"/>
      <point x="301" y="722" type="line"/>
    </contour>
    <contour>
      <point x="221" y="464" type="move" name="_top"/>
    </contour>
  </outline>
</glyph>
<glyph name="AE" format="1">
  <advance width="798"/>
  <unicode hex="00C6"/>
  <outline>
    <contour>
      <point x="335" y="643" type="line"/>
      <point x="-45" y="0" type="line"/>
      <point x="86" y="0" type="line"/>
      <point x="126" y="90" type="line"/>
      <point x="375" y="519" type="line"/>
      <point x="384" y="519" type="line"/>
      <point x="381" y="83" type="line"/>
      <point x="376" y="0" type="line"/>
      <point x="753" y="0" type="line"/>
      <point x="774" y="99" type="line"/>
      <point x="767" y="109" type="line"/>
      <point x="608" y="103" type="line"/>
      <point x="507" y="103" type="line"/>
      <point x="512" y="539" type="line"/>
      <point x="596" y="539" type="line"/>
      <point x="747" y="534" type="line"/>
      <point x="769" y="633" type="line"/>
      <point x="762" y="643" type="line"/>
    </contour>
    <contour>
      <point x="486" y="350" type="line"/>
      <point x="154" y="264" type="line"/>
      <point x="107" y="151" type="line"/>
      <point x="486" y="251" type="line"/>
      <point x="713" y="304" type="line"/>
      <point x="714" y="397" type="line"/>
      <point x="705" y="405" type="line"/>
    </contour>
    <contour>
      <point x="537" y="643" type="move" name="top"/>
    </contour>
  </outline>
</glyph>
<glyph name="Oslash" format="1">
  <advance width="631"/>
  <unicode hex="00D8"/>
  <outline>
    <contour>
      <point x="150" y="98" type="line"/>
      <point x="48" y="-75" type="line"/>
      <point x="52" y="-86" type="line"/>
      <point x="121" y="-117" type="line"/>
      <point x="221" y="53" type="line"/>
    </contour>
    <contour>
      <point x="509" y="541" type="line"/>
      <point x="599" y="692" type="line"/>
      <point x="593" y="706" type="line"/>
      <point x="526" y="736" type="line"/>
      <point x="437" y="586" type="line"/>
    </contour>
    <component base="O"/>
    <contour>
      <point x="354" y="645" type="move" name="top"/>
    </contour>
  </outline>
</glyph>
<glyph name="ae" format="1">
  <advance width="643"/>
  <unicode hex="00E6"/>
  <outline>
    <contour>
      <point x="270" y="471" type="line"/>
      <point x="264" y="471" type="line"/>
      <point x="102" y="433"/>
      <point x="25" y="284"/>
      <point x="25" y="153" type="curve" smooth="yes"/>
      <point x="25" y="77"/>
      <point x="52" y="19"/>
      <point x="129" y="-9" type="curve"/>
      <point x="147" y="-9" type="line"/>
      <point x="195" y="39"/>
      <point x="237" y="97"/>
      <point x="274" y="158" type="curve"/>
      <point x="274" y="156"/>
      <point x="276" y="149"/>
      <point x="276" y="148" type="curve" smooth="yes"/>
      <point x="285" y="57"/>
      <point x="323" y="3"/>
      <point x="427" y="-9" type="curve"/>
      <point x="441" y="-9" type="line"/>
      <point x="504" y="8"/>
      <point x="562" y="49"/>
      <point x="611" y="114" type="curve"/>
      <point x="572" y="166" type="line"/>
      <point x="555" y="168" type="line"/>
      <point x="529" y="119"/>
      <point x="488" y="88"/>
      <point x="446" y="88" type="curve" smooth="yes"/>
      <point x="412" y="88"/>
      <point x="394" y="111"/>
      <point x="390" y="162" type="curve" smooth="yes"/>
      <point x="389" y="168"/>
      <point x="389" y="172"/>
      <point x="388" y="176" type="curve"/>
      <point x="565" y="228"/>
      <point x="635" y="289"/>
      <point x="635" y="366" type="curve" smooth="yes"/>
      <point x="635" y="428"/>
      <point x="594" y="462"/>
      <point x="533" y="473" type="curve"/>
      <point x="521" y="474" type="line"/>
      <point x="474" y="472"/>
      <point x="432" y="459"/>
      <point x="396" y="436" type="curve"/>
    </contour>
    <contour>
      <point x="318" y="353" type="line"/>
      <point x="310" y="340"/>
      <point x="307" y="336"/>
      <point x="300" y="320" type="curve" smooth="yes"/>
      <point x="240" y="181"/>
      <point x="184" y="112"/>
      <point x="163" y="112" type="curve" smooth="yes"/>
      <point x="150" y="112"/>
      <point x="137" y="131"/>
      <point x="137" y="197" type="curve" smooth="yes"/>
      <point x="137" y="302"/>
      <point x="175" y="378"/>
      <point x="244" y="378" type="curve"/>
    </contour>
    <contour>
      <point x="515" y="393"/>
      <point x="527" y="381"/>
      <point x="527" y="358" type="curve" smooth="yes"/>
      <point x="527" y="312"/>
      <point x="482" y="278"/>
      <point x="389" y="251" type="curve"/>
      <point x="399" y="340"/>
      <point x="435" y="393"/>
      <point x="489" y="393" type="curve" smooth="yes"/>
    </contour>
    <contour>
      <point x="649" y="0" type="move" name="bottom"/>
    </contour>
    <contour>
      <point x="418" y="10" type="move" name="ogonek"/>
    </contour>
    <contour>
      <point x="365" y="465" type="move" name="top"/>
    </contour>
  </outline>
</glyph>
<glyph name="oslash" format="1">
  <advance width="436"/>
  <unicode hex="00F8"/>
  <outline>
    <contour>
      <point x="103" y="91" type="line"/>
      <point x="10" y="-77" type="line"/>
      <point x="13" y="-89" type="line"/>
      <point x="78" y="-123" type="line"/>
      <point x="168" y="40" type="line"/>
    </contour>
    <contour>
      <point x="355" y="388" type="line"/>
      <point x="430" y="524" type="line"/>
      <point x="423" y="536" type="line"/>
      <point x="363" y="570" type="line"/>
      <point x="282" y="424" type="line"/>
    </contour>
    <component base="o"/>
    <contour>
      <point x="242" y="464" type="move" name="top"/>
    </contour>
  </outline>
</glyph>
<glyph name="thorn" format="1">
  <advance width="466"/>
  <unicode hex="00FE"/>
  <outline>
    <contour>
      <point x="321" y="471" type="line"/>
      <point x="276" y="424"/>
      <point x="236" y="366"/>
      <point x="201" y="305" type="curve"/>
      <point x="176" y="305" type="line"/>
      <point x="155" y="108" type="line"/>
      <point x="221" y="271"/>
      <point x="283" y="352"/>
      <point x="305" y="352" type="curve" smooth="yes"/>
      <point x="318" y="352"/>
      <point x="331" y="332"/>
      <point x="331" y="265" type="curve" smooth="yes"/>
      <point x="331" y="163"/>
      <point x="294" y="84"/>
      <point x="229" y="84" type="curve"/>
      <point x="124" y="112" type="line"/>
      <point x="61" y="19" type="line"/>
      <point x="201" y="-9" type="line"/>
      <point x="207" y="-9" type="line"/>
      <point x="365" y="28"/>
      <point x="442" y="177"/>
      <point x="442" y="308" type="curve" smooth="yes"/>
      <point x="442" y="390"/>
      <point x="412" y="444"/>
      <point x="340" y="471" type="curve"/>
    </contour>
    <contour>
      <point x="120" y="695" type="line"/>
      <point x="116" y="590" type="line"/>
      <point x="8" y="-194" type="line"/>
      <point x="131" y="-185" type="line"/>
      <point x="135" y="-75" type="line"/>
      <point x="241" y="703" type="line"/>
    </contour>
  </outline>
</glyph>
<glyph name="aogonek" format="1">
  <advance width="466"/>
  <unicode hex="0105"/>
  <outline>
    <contour>
      <point x="275" y="24" type="line"/>
      <point x="211" y="-44"/>
      <point x="191" y="-75"/>
      <point x="191" y="-113" type="curve" smooth="yes"/>
      <point x="191" y="-164"/>
      <point x="226" y="-197"/>
      <point x="276" y="-197" type="curve" smooth="yes"/>
      <point x="312" y="-197"/>
      <point x="339" y="-179"/>
      <point x="370" y="-150" type="curve"/>
      <point x="357" y="-94" type="line"/>
      <point x="350" y="-94" type="line"/>
      <point x="332" y="-113"/>
      <point x="313" y="-123"/>
      <point x="295" y="-123" type="curve" smooth="yes"/>
      <point x="275" y="-123"/>
      <point x="263" y="-112"/>
      <point x="263" y="-94" type="curve" smooth="yes"/>
      <point x="263" y="-72"/>
      <point x="278" y="-50"/>
      <point x="342" y="18" type="curve"/>
    </contour>
    <component base="a"/>
  </outline>
</glyph>
<glyph name="dcaron" format="1">
  <advance width="553"/>
  <unicode hex="010F"/>
  <outline>
    <contour>
      <point x="225" y="243" type="move"/>
    </contour>
    <component base="d"/>
    <component base="caron.alt" xOffset="311" yOffset="-73"/>
  </outline>
</glyph>
<glyph name="dcroat" format="1">
  <advance width="472"/>
  <unicode hex="0111"/>
  <outline>
    <contour>
      <point x="212" y="614" type="line"/>
      <point x="206" y="552" type="line"/>
      <point x="214" y="543" type="line"/>
      <point x="518" y="543" type="line"/>
      <point x="524" y="605" type="line"/>
      <point x="515" y="614" type="line"/>
    </contour>
    <component base="d"/>
  </outline>
</glyph>
<glyph name="hbar" format="1">
  <advance width="544"/>
  <unicode hex="0127"/>
  <outline>
    <contour>
      <point x="76" y="614" type="line"/>
      <point x="71" y="552" type="line"/>
      <point x="79" y="543" type="line"/>
      <point x="383" y="543" type="line"/>
      <point x="388" y="605" type="line"/>
      <point x="379" y="614" type="line"/>
    </contour>
    <component base="h" xOffset="41"/>
  </outline>
</glyph>
<glyph name="iogonek" format="1">
  <advance width="236"/>
  <unicode hex="012F"/>
  <outline>
    <contour>
      <point x="44" y="13" type="line"/>
      <point x="-7" y="-51"/>
      <point x="-22" y="-80"/>
      <point x="-22" y="-113" type="curve" smooth="yes"/>
      <point x="-22" y="-163"/>
      <point x="12" y="-197"/>
      <point x="62" y="-197" type="curve" smooth="yes"/>
      <point x="98" y="-197"/>
      <point x="128" y="-179"/>
      <point x="161" y="-149" type="curve"/>
      <point x="148" y="-93" type="line"/>
      <point x="141" y="-93" type="line"/>
      <point x="122" y="-113"/>
      <point x="100" y="-123"/>
      <point x="81" y="-123" type="curve" smooth="yes"/>
      <point x="61" y="-123"/>
      <point x="50" y="-112"/>
      <point x="50" y="-94" type="curve" smooth="yes"/>
      <point x="50" y="-73"/>
      <point x="62" y="-48"/>
      <point x="114" y="13" type="curve"/>
    </contour>
    <component base="i"/>
  </outline>
</glyph>
<glyph name="lcaron" format="1">
  <advance width="302"/>
  <unicode hex="013E"/>
  <outline>
    <contour>
      <point x="240" y="114" type="move"/>
    </contour>
    <component base="l"/>
    <component base="caron.alt" xOffset="73" yOffset="-76"/>
  </outline>
</glyph>
<glyph name="Eng" format="1">
  <advance width="685"/>
  <unicode hex="014A"/>
  <outline>
    <contour>
      <point x="532" y="638" type="line"/>
      <point x="483" y="212" type="line"/>
      <point x="474" y="212" type="line"/>
      <point x="272" y="643" type="line"/>
      <point x="130" y="643" type="line"/>
      <point x="81" y="190" type="line"/>
      <point x="49" y="0" type="line"/>
      <point x="171" y="0" type="line"/>
      <point x="193" y="221" type="line"/>
      <point x="220" y="441" type="line"/>
      <point x="229" y="441" type="line"/>
      <point x="438" y="1" type="line"/>
      <point x="419" y="-33"/>
      <point x="384" y="-59"/>
      <point x="328" y="-87" type="curve"/>
      <point x="327" y="-100" type="line"/>
      <point x="358" y="-170" type="line"/>
      <point x="509" y="-114"/>
      <point x="565" y="-54"/>
      <point x="579" y="56" type="curve"/>
      <point x="592" y="198" type="line"/>
      <point x="655" y="646" type="line"/>
    </contour>
  </outline>
</glyph>
<glyph name="tbar" format="1">
  <advance width="349"/>
  <unicode hex="0167"/>
  <outline>
    <contour>
      <point x="28" y="298" type="line"/>
      <point x="22" y="235" type="line"/>
      <point x="30" y="226" type="line"/>
      <point x="318" y="226" type="line"/>
      <point x="324" y="289" type="line"/>
      <point x="315" y="298" type="line"/>
    </contour>
    <component base="t" xOffset="4"/>
  </outline>
</glyph>
<glyph name="dotlessj" format="1">
  <advance width="257"/>
  <unicode hex="0237"/>
  <outline>
    <contour>
      <point x="102" y="455" type="line"/>
      <point x="32" y="455" type="line"/>
      <point x="22" y="389" type="line"/>
      <point x="28" y="381" type="line"/>
      <point x="98" y="381" type="line"/>
      <point x="97" y="353" type="line"/>
      <point x="51" y="19" type="line" smooth="yes"/>
      <point x="42" y="-53"/>
      <point x="13" y="-92"/>
      <point x="-46" y="-127" type="curve"/>
      <point x="-47" y="-139" type="line"/>
      <point x="-8" y="-194" type="line"/>
      <point x="103" y="-142"/>
      <point x="152" y="-81"/>
      <point x="165" y="25" type="curve"/>
      <point x="174" y="114" type="line"/>
      <point x="224" y="464" type="line"/>
      <point x="220" y="468" type="line"/>
    </contour>
    <contour>
      <point x="153" y="464" type="move" name="top"/>
    </contour>
  </outline>
</glyph>
<glyph name="circumflex" format="1">
  <advance width="390"/>
  <unicode hex="02C6"/>
  <outline>
    <contour>
      <point x="123" y="526" type="line"/>
      <point x="168" y="559"/>
      <point x="209" y="590"/>
      <point x="243" y="619" type="curve"/>
      <point x="269" y="590"/>
      <point x="302" y="559"/>
      <point x="339" y="526" type="curve"/>
      <point x="351" y="526" type="line"/>
      <point x="390" y="575" type="line"/>
      <point x="347" y="619"/>
      <point x="304" y="669"/>
      <point x="267" y="716" type="curve"/>
      <point x="239" y="716" type="line"/>
      <point x="184" y="664"/>
      <point x="131" y="615"/>
      <point x="84" y="575" type="curve"/>
      <point x="110" y="526" type="line"/>
    </contour>
    <contour>
      <point x="218" y="464" type="move" name="_top"/>
    </contour>
  </outline>
</glyph>
<glyph name="firsttonechinese" format="1">
  <advance width="390"/>
  <unicode hex="02C9"/>
  <outline>
    <contour>
      <point x="101" y="659" type="line"/>
      <point x="94" y="586" type="line"/>
      <point x="102" y="577" type="line"/>
      <point x="383" y="577" type="line"/>
      <point x="389" y="650" type="line"/>
      <point x="381" y="659" type="line"/>
    </contour>
  </outline>
</glyph>
<glyph name="dotbelowcomb" format="1">
  <advance width="390"/>
  <unicode hex="0323"/>
  <outline>
    <contour>
      <point x="109" y="-56"/>
      <point x="82" y="-84"/>
      <point x="82" y="-128" type="curve" smooth="yes"/>
      <point x="82" y="-170"/>
      <point x="105" y="-195"/>
      <point x="148" y="-195" type="curve" smooth="yes"/>
      <point x="191" y="-195"/>
      <point x="218" y="-167"/>
      <point x="218" y="-122" type="curve" smooth="yes"/>
      <point x="218" y="-81"/>
      <point x="194" y="-56"/>
      <point x="153" y="-56" type="curve" smooth="yes"/>
    </contour>
    <contour>
      <point x="166" y="0" type="move" name="_bottom"/>
    </contour>
  </outline>
</glyph>
<glyph name="commaaccentcomb" format="1">
  <advance width="390"/>
  <unicode hex="0326"/>
  <outline>
    <contour>
      <point x="144" y="-56"/>
      <point x="117" y="-68"/>
      <point x="92" y="-84" type="curve"/>
      <point x="91" y="-93" type="line"/>
      <point x="110" y="-109"/>
      <point x="120" y="-126"/>
      <point x="120" y="-147" type="curve" smooth="yes"/>
      <point x="120" y="-177"/>
      <point x="103" y="-206"/>
      <point x="70" y="-233" type="curve"/>
      <point x="71" y="-242" type="line"/>
      <point x="108" y="-275" type="line"/>
      <point x="180" y="-224"/>
      <point x="214" y="-175"/>
      <point x="214" y="-123" type="curve" smooth="yes"/>
      <point x="214" y="-93"/>
      <point x="200" y="-69"/>
      <point x="174" y="-48" type="curve"/>
    </contour>
    <contour>
      <point x="163" y="-2" type="move" name="_bottom"/>
    </contour>
  </outline>
</glyph>
<glyph name="Omega" format="1">
  <advance width="734"/>
  <unicode hex="03A9"/>
  <outline>
    <contour>
      <point x="209" y="652"/>
      <point x="96" y="507"/>
      <point x="96" y="335" type="curve" smooth="yes"/>
      <point x="96" y="253"/>
      <point x="121" y="169"/>
      <point x="176" y="104" type="curve"/>
      <point x="174" y="99" type="line"/>
      <point x="115" y="99" type="line"/>
      <point x="27" y="106" type="line"/>
      <point x="-1" y="5" type="line"/>
      <point x="6" y="-4" type="line"/>
      <point x="101" y="0" type="line"/>
      <point x="261" y="0" type="line"/>
      <point x="297" y="-2" type="line"/>
      <point x="304" y="3" type="line"/>
      <point x="314" y="88" type="line"/>
      <point x="260" y="146"/>
      <point x="232" y="231"/>
      <point x="232" y="321" type="curve" smooth="yes"/>
      <point x="232" y="460"/>
      <point x="293" y="546"/>
      <point x="405" y="546" type="curve" smooth="yes"/>
      <point x="503" y="546"/>
      <point x="537" y="480"/>
      <point x="537" y="390" type="curve" smooth="yes"/>
      <point x="537" y="285"/>
      <point x="490" y="175"/>
      <point x="386" y="88" type="curve"/>
      <point x="376" y="3" type="line"/>
      <point x="381" y="-2" type="line"/>
      <point x="418" y="0" type="line"/>
      <point x="555" y="0" type="line"/>
      <point x="666" y="-6" type="line"/>
      <point x="694" y="100" type="line"/>
      <point x="688" y="108" type="line"/>
      <point x="606" y="99" type="line"/>
      <point x="530" y="99" type="line"/>
      <point x="528" y="104" type="line"/>
      <point x="628" y="196"/>
      <point x="676" y="305"/>
      <point x="676" y="408" type="curve" smooth="yes"/>
      <point x="676" y="548"/>
      <point x="589" y="652"/>
      <point x="415" y="652" type="curve" smooth="yes"/>
    </contour>
    <contour>
      <point x="1" y="643" type="move" name="topleft"/>
    </contour>
  </outline>
</glyph>
<glyph name="uni1E9E" format="1">
  <advance width="651"/>
  <unicode hex="1E9E"/>
  <outline>
    <contour>
      <point x="212" y="652"/>
      <point x="105" y="557"/>
      <point x="89" y="415" type="curve" smooth="yes"/>
      <point x="65" y="190" type="line"/>
      <point x="34" y="0" type="line"/>
      <point x="166" y="0" type="line"/>
      <point x="186" y="205" type="line"/>
      <point x="215" y="415" type="line"/>
      <point x="226" y="499"/>
      <point x="273" y="546"/>
      <point x="361" y="546" type="curve" smooth="yes"/>
      <point x="396" y="546"/>
      <point x="427" y="538"/>
      <point x="461" y="521" type="curve"/>
      <point x="305" y="335" type="line"/>
      <point x="307" y="315" type="line"/>
      <point x="445" y="255"/>
      <point x="493" y="219"/>
      <point x="493" y="169" type="curve" smooth="yes"/>
      <point x="493" y="124"/>
      <point x="459" y="92"/>
      <point x="412" y="92" type="curve" smooth="yes"/>
      <point x="370" y="92"/>
      <point x="318" y="118"/>
      <point x="274" y="163" type="curve"/>
      <point x="259" y="155" type="line"/>
      <point x="225" y="33" type="line"/>
      <point x="275" y="6"/>
      <point x="336" y="-9"/>
      <point x="391" y="-9" type="curve" smooth="yes"/>
      <point x="516" y="-9"/>
      <point x="626" y="64"/>
      <point x="626" y="194" type="curve" smooth="yes"/>
      <point x="626" y="280"/>
      <point x="573" y="319"/>
      <point x="469" y="376" type="curve"/>
      <point x="629" y="565" type="line"/>
      <point x="626" y="585" type="line"/>
      <point x="545" y="626"/>
      <point x="472" y="652"/>
      <point x="384" y="652" type="curve" smooth="yes"/>
    </contour>
  </outline>
</glyph>
<glyph name="adotbelow" format="1">
  <advance width="461"/>
  <unicode hex="1EA1"/>
  <outline>
    <component base="a"/>
    <component base="dotbelowcomb" xOffset="57"/>
    <contour>
      <point x="260" y="464" type="move" name="top"/>
    </contour>
  </outline>
</glyph>
<glyph name="Odotbelow" format="1">
  <advance width="631"/>
  <unicode hex="1ECC"/>
  <outline>
    <component base="O"/>
    <component base="dotbelowcomb" xOffset="150"/>
    <contour>
      <point x="367" y="643" type="move" name="top"/>
    </contour>
  </outline>
</glyph>
<glyph name="odotbelow" format="1">
  <advance width="436"/>
  <unicode hex="1ECD"/>
  <outline>
    <component base="o"/>
    <component base="dotbelowcomb" xOffset="22"/>
    <contour>
      <point x="260" y="464" type="move" name="top"/>
    </contour>
  </outline>
</glyph>
<glyph name="emdash" format="1">
  <advance width="891"/>
  <unicode hex="2014"/>
  <outline>
    <contour>
      <point x="-2" y="302" type="line"/>
      <point x="-18" y="223" type="line"/>
      <point x="-11" y="213" type="line"/>
      <point x="900" y="213" type="line"/>
      <point x="916" y="292" type="line"/>
      <point x="909" y="302" type="line"/>
    </contour>
  </outline>
</glyph>
<glyph name="perthousand" format="1">
  <advance width="1234"/>
  <unicode hex="2030"/>
  <outline>
    <contour>
      <point x="162" y="516" type="move"/>
    </contour>
    <component base="fraction" xOffset="377"/>
    <component base="zero.dnom" xOffset="479" yScale="0.92"/>
    <component base="zero.dnom" xOffset="854" yScale="0.92"/>
    <component base="zero.numr" xOffset="2" yOffset="55" yScale="0.92"/>
  </outline>
</glyph>
<glyph name="partialdiff" format="1">
  <advance width="519"/>
  <unicode hex="2202"/>
  <outline>
    <contour>
      <point x="203" y="718" type="line"/>
      <point x="104" y="653" type="line"/>
      <point x="103" y="641" type="line"/>
      <point x="298" y="572"/>
      <point x="387" y="460"/>
      <point x="372" y="276" type="curve" smooth="yes"/>
      <point x="363" y="154"/>
      <point x="320" y="81"/>
      <point x="237" y="81" type="curve" smooth="yes"/>
      <point x="170" y="81"/>
      <point x="139" y="125"/>
      <point x="146" y="203" type="curve" smooth="yes"/>
      <point x="153" y="291"/>
      <point x="195" y="336"/>
      <point x="271" y="336" type="curve" smooth="yes"/>
      <point x="311" y="336"/>
      <point x="347" y="318"/>
      <point x="385" y="286" type="curve"/>
      <point x="383" y="425" type="line"/>
      <point x="352" y="400" type="line"/>
      <point x="322" y="420"/>
      <point x="288" y="433"/>
      <point x="254" y="434" type="curve" smooth="yes"/>
      <point x="119" y="434"/>
      <point x="34" y="327"/>
      <point x="25" y="202" type="curve" smooth="yes"/>
      <point x="15" y="82"/>
      <point x="77" y="-10"/>
      <point x="222" y="-10" type="curve" smooth="yes"/>
      <point x="383" y="-10"/>
      <point x="485" y="104"/>
      <point x="497" y="283" type="curve" smooth="yes"/>
      <point x="512" y="479"/>
      <point x="407" y="626"/>
      <point x="212" y="718" type="curve"/>
    </contour>
  </outline>
</glyph>
<glyph name="fi" format="1">
  <advance width="542"/>
  <unicode hex="FB01"/>
  <outline>
    <contour>
      <point x="217" y="703"/>
      <point x="147" y="630"/>
      <point x="128" y="493" type="curve"/>
      <point x="90" y="190" type="line"/>
      <point x="47" y="-119" type="line"/>
      <point x="170" y="-110" type="line"/>
      <point x="174" y="-2" type="line"/>
      <point x="202" y="204" type="line"/>
      <point x="247" y="523" type="line"/>
      <point x="256" y="584"/>
      <point x="285" y="615"/>
      <point x="327" y="615" type="curve" smooth="yes"/>
      <point x="356" y="615"/>
      <point x="387" y="602"/>
      <point x="428" y="577" type="curve"/>
      <point x="445" y="582" type="line"/>
      <point x="475" y="672" type="line"/>
      <point x="471" y="681" type="line"/>
      <point x="348" y="703" type="line"/>
    </contour>
    <contour>
      <point x="51" y="455" type="line"/>
      <point x="42" y="389" type="line"/>
      <point x="48" y="381" type="line"/>
      <point x="449" y="381" type="line"/>
      <point x="459" y="445" type="line"/>
      <point x="450" y="455" type="line"/>
    </contour>
    <contour>
      <point x="388" y="451" type="line"/>
      <point x="384" y="356" type="line"/>
      <point x="334" y="-4" type="line"/>
      <point x="457" y="5" type="line"/>
      <point x="461" y="112" type="line"/>
      <point x="509" y="464" type="line"/>
      <point x="502" y="471" type="line"/>
    </contour>
    <contour>
      <point x="451" y="464" type="move" name="_top"/>
    </contour>
    <contour>
      <point x="492" y="10" type="move" name="ogonek"/>
    </contour>
    <contour>
      <point x="451" y="464" type="move" name="top"/>
    </contour>
  </outline>
</glyph>
<glyph name="C.ss01" format="1">
  <advance width="441"/>
  <outline>
    <contour>
      <point x="142" y="501"/>
      <point x="37" y="392"/>
      <point x="37" y="207" type="curve" smooth="yes"/>
      <point x="37" y="76"/>
      <point x="107" y="2"/>
      <point x="244" y="2" type="curve" smooth="yes"/>
      <point x="288" y="2"/>
      <point x="327" y="10"/>
      <point x="368" y="25" type="curve"/>
      <point x="390" y="125" type="line"/>
      <point x="380" y="131" type="line"/>
      <point x="346" y="112"/>
      <point x="301" y="100"/>
      <point x="264" y="100" type="curve" smooth="yes"/>
      <point x="197" y="100"/>
      <point x="162" y="142"/>
      <point x="162" y="226" type="curve" smooth="yes"/>
      <point x="162" y="348"/>
      <point x="205" y="406"/>
      <point x="296" y="406" type="curve" smooth="yes"/>
      <point x="335" y="406"/>
      <point x="374" y="393"/>
      <point x="400" y="372" type="curve"/>
      <point x="411" y="376" type="line"/>
      <point x="443" y="476" type="line"/>
      <point x="408" y="492"/>
      <point x="365" y="501"/>
      <point x="316" y="501" type="curve" smooth="yes"/>
    </contour>
    <contour>
      <point x="-119" y="48" type="line"/>
      <point x="-125" y="0" type="line"/>
      <point x="511" y="0" type="line"/>
      <point x="516" y="48" type="line"/>
    </contour>
    <contour>
      <point x="-62" y="505" type="line"/>
      <point x="-68" y="457" type="line"/>
      <point x="567" y="457" type="line"/>
      <point x="573" y="505" type="line"/>
    </contour>
    <contour>
      <point x="232" y="10" type="move" name="bottom"/>
    </contour>
    <contour>
      <point x="293" y="495" type="move" name="top"/>
    </contour>
  </outline>
</glyph>
<glyph name="D.ss01" format="1">
  <advance width="553"/>
  <outline>
    <contour>
      <point x="112" y="496" type="line"/>
      <point x="203" y="399" type="line"/>
      <point x="229" y="402"/>
      <point x="279" y="404"/>
      <point x="299" y="404" type="curve" smooth="yes"/>
      <point x="364" y="404"/>
      <point x="397" y="369"/>
      <point x="397" y="285" type="curve" smooth="yes"/>
      <point x="397" y="148"/>
      <point x="346" y="92"/>
      <point x="262" y="92" type="curve" smooth="yes"/>
      <point x="242" y="92"/>
      <point x="188" y="97"/>
      <point x="162" y="100" type="curve"/>
      <point x="51" y="7" type="line"/>
      <point x="104" y="4"/>
      <point x="187" y="1"/>
      <point x="229" y="1" type="curve" smooth="yes"/>
      <point x="416" y="1"/>
      <point x="522" y="116"/>
      <point x="522" y="306" type="curve" smooth="yes"/>
      <point x="522" y="429"/>
      <point x="451" y="499"/>
      <point x="320" y="499" type="curve"/>
    </contour>
    <contour>
      <point x="-119" y="48" type="line"/>
      <point x="-125" y="0" type="line"/>
      <point x="623" y="0" type="line"/>
      <point x="629" y="48" type="line"/>
    </contour>
    <contour>
      <point x="112" y="496" type="line"/>
      <point x="74" y="152" type="line"/>
      <point x="51" y="7" type="line"/>
      <point x="169" y="7" type="line"/>
      <point x="183" y="163" type="line"/>
      <point x="231" y="496" type="line"/>
    </contour>
    <contour>
      <point x="-62" y="505" type="line"/>
      <point x="-68" y="457" type="line"/>
      <point x="680" y="457" type="line"/>
      <point x="685" y="505" type="line"/>
    </contour>
    <contour>
      <point x="267" y="252" type="move" name="center"/>
    </contour>
    <contour>
      <point x="295" y="496" type="move" name="top"/>
    </contour>
  </outline>
</glyph>
<glyph name="Q.corta" format="1">
  <advance width="632"/>
  <outline>
    <contour>
      <point x="155" y="652"/>
      <point x="37" y="499"/>
      <point x="37" y="263" type="curve" smooth="yes"/>
      <point x="37" y="85"/>
      <point x="131" y="-10"/>
      <point x="286" y="-10" type="curve" smooth="yes"/>
      <point x="501" y="-10"/>
      <point x="619" y="148"/>
      <point x="619" y="384" type="curve" smooth="yes"/>
      <point x="619" y="561"/>
      <point x="525" y="652"/>
      <point x="369" y="652" type="curve" smooth="yes"/>
    </contour>
    <contour>
      <point x="281" y="5" type="line"/>
      <point x="347" y="-69"/>
      <point x="427" y="-131"/>
      <point x="520" y="-190" type="curve"/>
      <point x="530" y="-185" type="line"/>
      <point x="559" y="-162"/>
      <point x="582" y="-133"/>
      <point x="604" y="-98" type="curve"/>
      <point x="600" y="-85" type="line"/>
      <point x="512" y="-48"/>
      <point x="440" y="-4"/>
      <point x="378" y="49" type="curve"/>
    </contour>
    <contour>
      <point x="443" y="545"/>
      <point x="480" y="493"/>
      <point x="480" y="373" type="curve" smooth="yes"/>
      <point x="480" y="173"/>
      <point x="416" y="92"/>
      <point x="299" y="92" type="curve" smooth="yes"/>
      <point x="210" y="92"/>
      <point x="174" y="145"/>
      <point x="174" y="266" type="curve" smooth="yes"/>
      <point x="174" y="465"/>
      <point x="236" y="545"/>
      <point x="354" y="545" type="curve" smooth="yes"/>
    </contour>
  </outline>
</glyph>
<glyph name="X.ss01" format="1">
  <advance width="520"/>
  <outline>
    <contour>
      <point x="390" y="484" type="line"/>
      <point x="364" y="439" type="line"/>
      <point x="280" y="332" type="line"/>
      <point x="224" y="434" type="line"/>
      <point x="208" y="484" type="line"/>
      <point x="73" y="484" type="line"/>
      <point x="196" y="252" type="line"/>
      <point x="17" y="24" type="line"/>
      <point x="132" y="24" type="line"/>
      <point x="159" y="68" type="line"/>
      <point x="252" y="181" type="line"/>
      <point x="310" y="73" type="line"/>
      <point x="328" y="24" type="line"/>
      <point x="460" y="24" type="line"/>
      <point x="338" y="263" type="line"/>
      <point x="508" y="484" type="line"/>
    </contour>
    <contour>
      <point x="-119" y="48" type="line"/>
      <point x="-125" y="0" type="line"/>
      <point x="590" y="0" type="line"/>
      <point x="596" y="48" type="line"/>
    </contour>
    <contour>
      <point x="-62" y="505" type="line"/>
      <point x="-68" y="457" type="line"/>
      <point x="647" y="457" type="line"/>
      <point x="653" y="505" type="line"/>
    </contour>
  </outline>
</glyph>
<glyph name="brevegrave" format="1">
  <advance width="390"/>
  <outline>
    <contour>
      <point x="349" y="667" type="line"/>
      <point x="328" y="632"/>
      <point x="290" y="611"/>
      <point x="244" y="611" type="curve" smooth="yes"/>
      <point x="197" y="611"/>
      <point x="162" y="631"/>
      <point x="149" y="667" type="curve"/>
      <point x="130" y="667" type="line"/>
      <point x="95" y="626" type="line"/>
      <point x="112" y="558"/>
      <point x="164" y="521"/>
      <point x="240" y="521" type="curve" smooth="yes"/>
      <point x="309" y="521"/>
      <point x="362" y="558"/>
      <point x="393" y="626" type="curve" smooth="yes"/>
      <point x="368" y="667" type="line"/>
    </contour>
    <contour>
      <point x="263" y="730"/>
      <point x="233" y="771"/>
      <point x="203" y="814" type="curve"/>
      <point x="193" y="816" type="line"/>
      <point x="133" y="777" type="line"/>
      <point x="132" y="766" type="line"/>
      <point x="168" y="730"/>
      <point x="205" y="694"/>
      <point x="243" y="659" type="curve"/>
      <point x="254" y="657" type="line"/>
      <point x="295" y="689" type="line"/>
    </contour>
    <contour>
      <point x="222" y="464" type="move" name="_top"/>
    </contour>
  </outline>
</glyph>
<glyph name="caron.alt" format="1">
  <advance width="390"/>
  <outline>
    <contour>
      <point x="204" y="713" type="line"/>
      <point x="181" y="510" type="line"/>
      <point x="189" y="503" type="line"/>
      <point x="247" y="512" type="line"/>
      <point x="304" y="710" type="line"/>
      <point x="297" y="718" type="line"/>
    </contour>
    <contour>
      <point x="243" y="464" type="move" name="_topright"/>
    </contour>
  </outline>
</glyph>
<glyph name="circumflexacute" format="1">
  <advance width="390"/>
  <outline>
    <contour>
      <point x="230" y="684" type="line"/>
      <point x="188" y="648"/>
      <point x="141" y="614"/>
      <point x="90" y="581" type="curve"/>
      <point x="108" y="529" type="line"/>
      <point x="121" y="529" type="line"/>
      <point x="160" y="550"/>
      <point x="201" y="571"/>
      <point x="240" y="593" type="curve"/>
      <point x="273" y="571"/>
      <point x="305" y="550"/>
      <point x="339" y="529" type="curve"/>
      <point x="352" y="529" type="line"/>
      <point x="382" y="581" type="line"/>
      <point x="337" y="614"/>
      <point x="295" y="648"/>
      <point x="258" y="684" type="curve"/>
    </contour>
    <contour>
      <point x="365" y="809" type="line"/>
      <point x="295" y="686" type="line"/>
      <point x="339" y="653" type="line"/>
      <point x="348" y="653" type="line"/>
      <point x="442" y="774" type="line"/>
      <point x="439" y="784" type="line"/>
      <point x="375" y="813" type="line"/>
    </contour>
    <contour>
      <point x="222" y="464" type="move" name="_top"/>
    </contour>
  </outline>
</glyph>
<glyph name="dieresis.i" format="1">
  <advance width="390"/>
  <outline>
    <contour>
      <point x="280" y="679"/>
      <point x="256" y="654"/>
      <point x="256" y="614" type="curve" smooth="yes"/>
      <point x="256" y="575"/>
      <point x="277" y="553"/>
      <point x="316" y="553" type="curve" smooth="yes"/>
      <point x="354" y="553"/>
      <point x="379" y="579"/>
      <point x="379" y="619" type="curve" smooth="yes"/>
      <point x="379" y="656"/>
      <point x="357" y="679"/>
      <point x="321" y="679" type="curve" smooth="yes"/>
    </contour>
    <contour>
      <point x="129" y="679"/>
      <point x="105" y="654"/>
      <point x="105" y="614" type="curve" smooth="yes"/>
      <point x="105" y="575"/>
      <point x="126" y="553"/>
      <point x="165" y="553" type="curve" smooth="yes"/>
      <point x="203" y="553"/>
      <point x="228" y="579"/>
      <point x="228" y="619" type="curve" smooth="yes"/>
      <point x="228" y="656"/>
      <point x="206" y="679"/>
      <point x="170" y="679" type="curve" smooth="yes"/>
    </contour>
    <contour>
      <point x="223" y="464" type="move" name="_top"/>
    </contour>
  </outline>
</glyph>
<glyph name="dieresisacute" format="1">
  <advance width="390"/>
  <outline>
    <contour>
      <point x="268" y="814"/>
      <point x="197" y="791"/>
      <point x="120" y="768" type="curve"/>
      <point x="131" y="711" type="line"/>
      <point x="143" y="705" type="line"/>
      <point x="216" y="716"/>
      <point x="288" y="728"/>
      <point x="367" y="744" type="curve"/>
      <point x="374" y="756" type="line"/>
      <point x="354" y="837" type="line"/>
      <point x="343" y="842" type="line"/>
    </contour>
    <contour>
      <point x="116" y="658"/>
      <point x="92" y="633"/>
      <point x="92" y="595" type="curve" smooth="yes"/>
      <point x="92" y="558"/>
      <point x="113" y="536"/>
      <point x="150" y="536" type="curve" smooth="yes"/>
      <point x="189" y="536"/>
      <point x="212" y="561"/>
      <point x="212" y="600" type="curve" smooth="yes"/>
      <point x="212" y="637"/>
      <point x="191" y="658"/>
      <point x="155" y="658" type="curve" smooth="yes"/>
    </contour>
    <contour>
      <point x="289" y="658"/>
      <point x="265" y="633"/>
      <point x="265" y="595" type="curve" smooth="yes"/>
      <point x="265" y="558"/>
      <point x="286" y="536"/>
      <point x="323" y="536" type="curve" smooth="yes"/>
      <point x="362" y="536"/>
      <point x="385" y="561"/>
      <point x="385" y="600" type="curve" smooth="yes"/>
      <point x="385" y="637"/>
      <point x="364" y="658"/>
      <point x="328" y="658" type="curve" smooth="yes"/>
    </contour>
    <contour>
      <point x="222" y="464" type="move" name="_top"/>
    </contour>
  </outline>
</glyph>
<glyph name="down" format="1">
  <advance width="420"/>
  <outline>
    <contour>
      <point x="62" y="368" type="line"/>
      <point x="210" y="72" type="line"/>
      <point x="358" y="368" type="line"/>
    </contour>
  </outline>
</glyph>
<glyph name="eight.tosf" format="1">
  <advance width="476"/>
  <outline>
    <contour>
      <point x="157" y="594"/>
      <point x="78" y="524"/>
      <point x="78" y="421" type="curve" smooth="yes"/>
      <point x="78" y="353"/>
      <point x="112" y="319"/>
      <point x="154" y="293" type="curve"/>
      <point x="153" y="287" type="line"/>
      <point x="80" y="256"/>
      <point x="28" y="216"/>
      <point x="28" y="137" type="curve" smooth="yes"/>
      <point x="28" y="49"/>
      <point x="101" y="-9"/>
      <point x="219" y="-9" type="curve" smooth="yes"/>
      <point x="347" y="-9"/>
      <point x="430" y="64"/>
      <point x="430" y="169" type="curve" smooth="yes"/>
      <point x="430" y="243"/>
      <point x="389" y="277"/>
      <point x="340" y="304" type="curve"/>
      <point x="341" y="311" type="line"/>
      <point x="397" y="341"/>
      <point x="444" y="384"/>
      <point x="444" y="457" type="curve" smooth="yes"/>
      <point x="444" y="542"/>
      <point x="380" y="594"/>
      <point x="277" y="594" type="curve" smooth="yes"/>
    </contour>
    <contour>
      <point x="285" y="230"/>
      <point x="325" y="209"/>
      <point x="325" y="161" type="curve" smooth="yes"/>
      <point x="325" y="115"/>
      <point x="285" y="77"/>
      <point x="223" y="77" type="curve" smooth="yes"/>
      <point x="166" y="77"/>
      <point x="137" y="107"/>
      <point x="137" y="155" type="curve" smooth="yes"/>
      <point x="137" y="210"/>
      <point x="178" y="232"/>
      <point x="231" y="252" type="curve"/>
    </contour>
    <contour>
      <point x="317" y="506"/>
      <point x="342" y="483"/>
      <point x="342" y="441" type="curve" smooth="yes"/>
      <point x="342" y="393"/>
      <point x="307" y="366"/>
      <point x="263" y="343" type="curve"/>
      <point x="217" y="362"/>
      <point x="184" y="383"/>
      <point x="184" y="430" type="curve" smooth="yes"/>
      <point x="184" y="474"/>
      <point x="218" y="506"/>
      <point x="271" y="506" type="curve" smooth="yes"/>
    </contour>
  </outline>
</glyph>
<glyph name="f.f" format="1">
  <advance width="304"/>
  <outline>
    <contour>
      <point x="216" y="688"/>
      <point x="144" y="614"/>
      <point x="127" y="478" type="curve" smooth="yes"/>
      <point x="91" y="190" type="line"/>
      <point x="48" y="-119" type="line"/>
      <point x="171" y="-110" type="line"/>
      <point x="175" y="-2" type="line"/>
      <point x="203" y="204" type="line"/>
      <point x="245" y="508" type="line" smooth="yes"/>
      <point x="254" y="569"/>
      <point x="283" y="599"/>
      <point x="324" y="599" type="curve" smooth="yes"/>
      <point x="344" y="599"/>
      <point x="371" y="591"/>
      <point x="399" y="574" type="curve"/>
      <point x="415" y="578" type="line"/>
      <point x="452" y="663" type="line"/>
      <point x="446" y="673" type="line"/>
      <point x="348" y="688" type="line"/>
    </contour>
    <contour>
      <point x="51" y="455" type="line"/>
      <point x="42" y="389" type="line"/>
      <point x="48" y="381" type="line"/>
      <point x="472" y="381" type="line"/>
      <point x="482" y="445" type="line"/>
      <point x="473" y="455" type="line"/>
    </contour>
  </outline>
</glyph>
<glyph name="f.sups" format="1">
  <advance width="212"/>
  <outline>
    <contour>
      <point x="262" y="810" type="line"/>
      <point x="180" y="810"/>
      <point x="128" y="759"/>
      <point x="116" y="667" type="curve" smooth="yes"/>
      <point x="93" y="456" type="line"/>
      <point x="64" y="238" type="line"/>
      <point x="150" y="243" type="line"/>
      <point x="154" y="316" type="line"/>
      <point x="173" y="465" type="line"/>
      <point x="204" y="689" type="line" smooth="yes"/>
      <point x="209" y="730"/>
      <point x="224" y="750"/>
      <point x="250" y="750" type="curve" smooth="yes"/>
      <point x="264" y="750"/>
      <point x="280" y="745"/>
      <point x="301" y="734" type="curve"/>
      <point x="313" y="739" type="line"/>
      <point x="329" y="796" type="line"/>
      <point x="326" y="801" type="line"/>
      <point x="262" y="810" type="line"/>
    </contour>
    <contour>
      <point x="262" y="638" type="line"/>
      <point x="67" y="638" type="line"/>
      <point x="61" y="595" type="line"/>
      <point x="65" y="590" type="line"/>
      <point x="262" y="590" type="line"/>
      <point x="269" y="630" type="line"/>
      <point x="262" y="638" type="line"/>
    </contour>
  </outline>
</glyph>
<glyph name="f.t" format="1">
  <advance width="305"/>
  <outline>
    <contour>
      <point x="218" y="703"/>
      <point x="146" y="630"/>
      <point x="129" y="493" type="curve" smooth="yes"/>
      <point x="91" y="190" type="line"/>
      <point x="48" y="-119" type="line"/>
      <point x="171" y="-110" type="line"/>
      <point x="175" y="-2" type="line"/>
      <point x="203" y="204" type="line"/>
      <point x="247" y="523" type="line" smooth="yes"/>
      <point x="256" y="584"/>
      <point x="285" y="615"/>
      <point x="326" y="615" type="curve" smooth="yes"/>
      <point x="346" y="615"/>
      <point x="373" y="607"/>
      <point x="401" y="591" type="curve"/>
      <point x="418" y="595" type="line"/>
      <point x="451" y="680" type="line"/>
      <point x="445" y="690" type="line"/>
      <point x="350" y="703" type="line"/>
    </contour>
    <contour>
      <point x="51" y="455" type="line"/>
      <point x="42" y="389" type="line"/>
      <point x="48" y="381" type="line"/>
      <point x="488" y="381" type="line"/>
      <point x="498" y="445" type="line"/>
      <point x="489" y="455" type="line"/>
    </contour>
    <contour>
      <point x="172" y="0" type="move" name="bottom"/>
    </contour>
    <contour>
      <point x="280" y="749" type="move" name="top"/>
    </contour>
  </outline>
</glyph>
<glyph name="five.dnom" format="1">
  <advance width="319"/>
  <outline>
    <contour>
      <point x="230" y="385" type="line"/>
      <point x="123" y="385" type="line"/>
      <point x="83" y="386" type="line"/>
      <point x="70" y="375" type="line"/>
      <point x="46" y="186" type="line"/>
      <point x="51" y="179" type="line"/>
      <point x="119" y="167" type="line" smooth="yes"/>
      <point x="157" y="159"/>
      <point x="174" y="147"/>
      <point x="174" y="125" type="curve" smooth="yes"/>
      <point x="174" y="89"/>
      <point x="141" y="68"/>
      <point x="88" y="68" type="curve" smooth="yes"/>
      <point x="61" y="68"/>
      <point x="36" y="71"/>
      <point x="9" y="78" type="curve"/>
      <point x="2" y="72" type="line"/>
      <point x="-1" y="2" type="line"/>
      <point x="22" y="-3"/>
      <point x="54" y="-6"/>
      <point x="78" y="-6" type="curve" smooth="yes"/>
      <point x="193" y="-6"/>
      <point x="274" y="53"/>
      <point x="274" y="142" type="curve" smooth="yes"/>
      <point x="274" y="191"/>
      <point x="242" y="221"/>
      <point x="173" y="236" type="curve" smooth="yes"/>
      <point x="131" y="245" type="line"/>
      <point x="140" y="308" type="line"/>
      <point x="218" y="308" type="line"/>
      <point x="280" y="301" type="line"/>
      <point x="288" y="308" type="line"/>
      <point x="307" y="382" type="line"/>
      <point x="302" y="388" type="line"/>
    </contour>
  </outline>
</glyph>
<glyph name="hookabove" format="1">
  <advance width="390"/>
  <outline>
    <contour>
      <point x="225" y="739"/>
      <point x="187" y="720"/>
      <point x="158" y="689" type="curve"/>
      <point x="180" y="654" type="line"/>
      <point x="200" y="670"/>
      <point x="224" y="678"/>
      <point x="243" y="678" type="curve" smooth="yes"/>
      <point x="259" y="678"/>
      <point x="271" y="671"/>
      <point x="271" y="656" type="curve" smooth="yes"/>
      <point x="271" y="638"/>
      <point x="252" y="610"/>
      <point x="219" y="586" type="curve"/>
      <point x="261" y="521" type="line"/>
      <point x="308" y="548" type="line"/>
      <point x="285" y="586" type="line"/>
      <point x="326" y="621"/>
      <point x="341" y="642"/>
      <point x="341" y="669" type="curve" smooth="yes"/>
      <point x="341" y="710"/>
      <point x="306" y="739"/>
      <point x="262" y="739" type="curve" smooth="yes"/>
    </contour>
    <contour>
      <point x="261" y="464" type="move" name="_top"/>
    </contour>
  </outline>
</glyph>
<glyph name="j.sups" format="1">
  <advance width="185"/>
  <outline>
    <contour>
      <point x="183" y="645" type="line"/>
      <point x="104" y="638" type="line"/>
      <point x="57" y="638" type="line"/>
      <point x="50" y="595" type="line"/>
      <point x="54" y="590" type="line"/>
      <point x="96" y="590" type="line"/>
      <point x="96" y="567" type="line"/>
      <point x="66" y="340" type="line"/>
      <point x="59" y="292"/>
      <point x="42" y="265"/>
      <point x="6" y="241" type="curve"/>
      <point x="5" y="234" type="line"/>
      <point x="32" y="196" type="line"/>
      <point x="104" y="232"/>
      <point x="138" y="275"/>
      <point x="147" y="348" type="curve"/>
      <point x="153" y="402" type="line"/>
      <point x="185" y="642" type="line"/>
      <point x="183" y="645" type="line"/>
    </contour>
    <contour>
      <point x="120" y="804"/>
      <point x="100" y="786"/>
      <point x="100" y="754" type="curve" smooth="yes"/>
      <point x="100" y="724"/>
      <point x="117" y="709"/>
      <point x="147" y="709" type="curve" smooth="yes"/>
      <point x="177" y="709"/>
      <point x="197" y="728"/>
      <point x="197" y="758" type="curve" smooth="yes"/>
      <point x="197" y="787"/>
      <point x="180" y="804"/>
      <point x="151" y="804" type="curve" smooth="yes"/>
    </contour>
    <contour>
      <point x="93" y="191" type="move" name="_top"/>
    </contour>
    <contour>
      <point x="83" y="191" type="move" name="top"/>
    </contour>
  </outline>
</glyph>
<glyph name="kgreenlandic.sc" format="1">
  <advance width="508"/>
  <outline>
    <component base="k.sc"/>
    <contour>
      <point x="243" y="0" type="move" name="bottom"/>
    </contour>
    <contour>
      <point x="240" y="505" type="move" name="top"/>
    </contour>
  </outline>
</glyph>
<glyph name="l.sups" format="1">
  <advance width="164"/>
  <outline>
    <contour>
      <point x="193" y="812" type="line"/>
      <point x="107" y="805" type="line"/>
      <point x="105" y="734" type="line"/>
      <point x="50" y="325" type="line"/>
      <point x="135" y="331" type="line"/>
      <point x="140" y="404" type="line"/>
      <point x="193" y="812" type="line"/>
    </contour>
    <contour>
      <point x="66" y="0" type="move" name="bottom"/>
    </contour>
    <contour>
      <point x="66" y="191" type="move" name="top"/>
    </contour>
    <contour>
      <point x="114" y="191" type="move" name="topright"/>
    </contour>
  </outline>
</glyph>
<glyph name="p.sups" format="1">
  <advance width="324"/>
  <outline>
    <contour>
      <point x="250" y="645" type="line"/>
      <point x="221" y="614"/>
      <point x="193" y="572"/>
      <point x="170" y="526" type="curve"/>
      <point x="156" y="526" type="line"/>
      <point x="138" y="405" type="line"/>
      <point x="185" y="511"/>
      <point x="225" y="570"/>
      <point x="239" y="570" type="curve" smooth="yes"/>
      <point x="247" y="570"/>
      <point x="256" y="554"/>
      <point x="256" y="508" type="curve" smooth="yes"/>
      <point x="256" y="439"/>
      <point x="232" y="384"/>
      <point x="191" y="384" type="curve"/>
      <point x="119" y="403" type="line"/>
      <point x="74" y="342" type="line"/>
      <point x="175" y="323" type="line"/>
      <point x="179" y="323" type="line"/>
      <point x="282" y="348"/>
      <point x="334" y="444"/>
      <point x="334" y="541" type="curve" smooth="yes"/>
      <point x="334" y="596"/>
      <point x="317" y="628"/>
      <point x="262" y="645" type="curve"/>
    </contour>
    <contour>
      <point x="176" y="645" type="line"/>
      <point x="90" y="640" type="line"/>
      <point x="87" y="569" type="line"/>
      <point x="38" y="197" type="line"/>
      <point x="124" y="203" type="line"/>
      <point x="129" y="276" type="line"/>
      <point x="176" y="645" type="line"/>
    </contour>
    <contour>
      <point x="146" y="0" type="move" name="bottom"/>
    </contour>
    <contour>
      <point x="110" y="191" type="move" name="top"/>
    </contour>
  </outline>
</glyph>
<glyph name="puso.cap" format="1">
  <advance width="142"/>
  <outline>
    <contour>
      <point x="64" y="607" type="line"/>
      <point x="39" y="312" type="line"/>
      <point x="48" y="301" type="line"/>
      <point x="110" y="313" type="line"/>
      <point x="172" y="604" type="line"/>
      <point x="165" y="616" type="line"/>
    </contour>
    <contour>
      <point x="72" y="153" type="move"/>
    </contour>
  </outline>
</glyph>
<glyph name="s.sups" format="1">
  <advance width="249"/>
  <outline>
    <contour>
      <point x="126" y="648"/>
      <point x="65" y="606"/>
      <point x="65" y="540" type="curve" smooth="yes"/>
      <point x="65" y="465"/>
      <point x="172" y="451"/>
      <point x="175" y="409" type="curve" smooth="yes"/>
      <point x="176" y="392"/>
      <point x="162" y="375"/>
      <point x="138" y="375" type="curve" smooth="yes"/>
      <point x="115" y="375"/>
      <point x="86" y="390"/>
      <point x="63" y="414" type="curve"/>
      <point x="54" y="408" type="line"/>
      <point x="35" y="341" type="line"/>
      <point x="60" y="331"/>
      <point x="86" y="326"/>
      <point x="116" y="323" type="curve"/>
      <point x="193" y="323"/>
      <point x="249" y="367"/>
      <point x="249" y="426" type="curve" smooth="yes"/>
      <point x="249" y="509"/>
      <point x="141" y="518"/>
      <point x="141" y="560" type="curve" smooth="yes"/>
      <point x="141" y="577"/>
      <point x="153" y="593"/>
      <point x="175" y="593" type="curve" smooth="yes"/>
      <point x="190" y="593"/>
      <point x="215" y="583"/>
      <point x="237" y="563" type="curve"/>
      <point x="249" y="568" type="line"/>
      <point x="267" y="631" type="line"/>
      <point x="245" y="639"/>
      <point x="223" y="645"/>
      <point x="198" y="647" type="curve"/>
    </contour>
    <contour>
      <point x="93" y="0" type="move" name="bottom"/>
    </contour>
    <contour>
      <point x="95" y="189" type="move" name="top"/>
    </contour>
  </outline>
</glyph>
<glyph name="seven.dnom" format="1">
  <advance width="311"/>
  <outline>
    <contour>
      <point x="26" y="306" type="line"/>
      <point x="30" y="298" type="line"/>
      <point x="97" y="304" type="line"/>
      <point x="195" y="304" type="line"/>
      <point x="28" y="30" type="line"/>
      <point x="32" y="14" type="line"/>
      <point x="112" y="-7" type="line"/>
      <point x="166" y="96" type="line"/>
      <point x="297" y="314" type="line"/>
      <point x="305" y="386" type="line"/>
      <point x="270" y="385" type="line"/>
      <point x="124" y="385" type="line"/>
      <point x="43" y="386" type="line"/>
    </contour>
  </outline>
</glyph>
<glyph name="six.tf" format="1">
  <advance width="475"/>
  <outline>
    <contour>
      <point x="364" y="596" type="line"/>
      <point x="129" y="500"/>
      <point x="28" y="336"/>
      <point x="28" y="187" type="curve" smooth="yes"/>
      <point x="28" y="67"/>
      <point x="95" y="-10"/>
      <point x="221" y="-10" type="curve" smooth="yes"/>
      <point x="380" y="-10"/>
      <point x="438" y="113"/>
      <point x="438" y="199" type="curve" smooth="yes"/>
      <point x="438" y="285"/>
      <point x="377" y="361"/>
      <point x="282" y="361" type="curve" smooth="yes"/>
      <point x="247" y="361"/>
      <point x="219" y="349"/>
      <point x="187" y="331" type="curve"/>
      <point x="168" y="358" type="line"/>
      <point x="136" y="223" type="line"/>
      <point x="172" y="254"/>
      <point x="212" y="269"/>
      <point x="246" y="269" type="curve" smooth="yes"/>
      <point x="296" y="269"/>
      <point x="320" y="240"/>
      <point x="320" y="186" type="curve" smooth="yes"/>
      <point x="320" y="132"/>
      <point x="297" y="77"/>
      <point x="227" y="77" type="curve" smooth="yes"/>
      <point x="161" y="77"/>
      <point x="145" y="123"/>
      <point x="145" y="190" type="curve" smooth="yes"/>
      <point x="145" y="323"/>
      <point x="203" y="447"/>
      <point x="454" y="525" type="curve"/>
      <point x="455" y="538" type="line"/>
      <point x="371" y="596" type="line"/>
    </contour>
  </outline>
</glyph>
<glyph name="six.tosf" format="1">
  <advance width="475"/>
  <outline>
    <contour>
      <point x="366" y="596" type="line"/>
      <point x="130" y="500"/>
      <point x="29" y="337"/>
      <point x="29" y="188" type="curve" smooth="yes"/>
      <point x="29" y="67"/>
      <point x="97" y="-10"/>
      <point x="223" y="-10" type="curve" smooth="yes"/>
      <point x="382" y="-10"/>
      <point x="440" y="113"/>
      <point x="440" y="198" type="curve" smooth="yes"/>
      <point x="440" y="285"/>
      <point x="379" y="361"/>
      <point x="284" y="361" type="curve" smooth="yes"/>
      <point x="250" y="361"/>
      <point x="221" y="350"/>
      <point x="189" y="331" type="curve"/>
      <point x="170" y="358" type="line"/>
      <point x="138" y="223" type="line"/>
      <point x="174" y="253"/>
      <point x="214" y="269"/>
      <point x="248" y="269" type="curve" smooth="yes"/>
      <point x="297" y="269"/>
      <point x="321" y="240"/>
      <point x="321" y="186" type="curve" smooth="yes"/>
      <point x="321" y="132"/>
      <point x="299" y="78"/>
      <point x="229" y="78" type="curve" smooth="yes"/>
      <point x="163" y="78"/>
      <point x="147" y="124"/>
      <point x="147" y="191" type="curve" smooth="yes"/>
      <point x="147" y="324"/>
      <point x="205" y="447"/>
      <point x="456" y="525" type="curve"/>
      <point x="457" y="538" type="line"/>
      <point x="372" y="596" type="line"/>
    </contour>
  </outline>
</glyph>
<glyph name="t.sups" format="1">
  <advance width="239"/>
  <outline>
    <contour>
      <point x="203" y="731" type="line"/>
      <point x="122" y="711" type="line"/>
      <point x="104" y="570" type="line"/>
      <point x="79" y="408" type="line"/>
      <point x="78" y="389" type="line"/>
      <point x="78" y="342"/>
      <point x="103" y="326"/>
      <point x="160" y="324" type="curve"/>
      <point x="170" y="325" type="line"/>
      <point x="201" y="339"/>
      <point x="225" y="365"/>
      <point x="246" y="404" type="curve"/>
      <point x="223" y="433" type="line"/>
      <point x="211" y="434" type="line"/>
      <point x="199" y="405"/>
      <point x="188" y="393"/>
      <point x="174" y="393" type="curve" smooth="yes"/>
      <point x="165" y="393"/>
      <point x="160" y="398"/>
      <point x="160" y="409" type="curve"/>
      <point x="161" y="417" type="line"/>
      <point x="209" y="726" type="line"/>
      <point x="203" y="731" type="line"/>
    </contour>
    <contour>
      <point x="273" y="638" type="line"/>
      <point x="65" y="638" type="line"/>
      <point x="60" y="595" type="line"/>
      <point x="65" y="590" type="line"/>
      <point x="274" y="590" type="line"/>
      <point x="279" y="630" type="line"/>
      <point x="273" y="638" type="line"/>
    </contour>
    <contour>
      <point x="89" y="0" type="move" name="bottom"/>
    </contour>
    <contour>
      <point x="88" y="95" type="move" name="center"/>
    </contour>
  </outline>
</glyph>
<glyph name="three.dnom" format="1">
  <advance width="320"/>
  <outline>
    <contour>
      <point x="119" y="390"/>
      <point x="78" y="377"/>
      <point x="36" y="352" type="curve"/>
      <point x="43" y="285" type="line"/>
      <point x="54" y="285" type="line"/>
      <point x="86" y="302"/>
      <point x="112" y="312"/>
      <point x="137" y="312" type="curve" smooth="yes"/>
      <point x="162" y="312"/>
      <point x="177" y="302"/>
      <point x="177" y="282" type="curve" smooth="yes"/>
      <point x="177" y="252"/>
      <point x="143" y="231"/>
      <point x="109" y="230" type="curve" smooth="yes"/>
      <point x="77" y="229" type="line"/>
      <point x="68" y="162" type="line"/>
      <point x="73" y="156" type="line"/>
      <point x="124" y="156" type="line"/>
      <point x="156" y="155"/>
      <point x="173" y="144"/>
      <point x="173" y="119" type="curve" smooth="yes"/>
      <point x="173" y="88"/>
      <point x="142" y="68"/>
      <point x="90" y="68" type="curve" smooth="yes"/>
      <point x="66" y="68"/>
      <point x="42" y="72"/>
      <point x="14" y="79" type="curve"/>
      <point x="7" y="73" type="line"/>
      <point x="4" y="2" type="line"/>
      <point x="27" y="-3"/>
      <point x="56" y="-6"/>
      <point x="79" y="-6" type="curve" smooth="yes"/>
      <point x="193" y="-6"/>
      <point x="272" y="46"/>
      <point x="272" y="124" type="curve" smooth="yes"/>
      <point x="272" y="164"/>
      <point x="251" y="191"/>
      <point x="208" y="203" type="curve"/>
      <point x="209" y="207" type="line"/>
      <point x="265" y="232"/>
      <point x="283" y="272"/>
      <point x="283" y="304" type="curve" smooth="yes"/>
      <point x="283" y="356"/>
      <point x="231" y="390"/>
      <point x="162" y="390" type="curve" smooth="yes"/>
    </contour>
  </outline>
</glyph>
<glyph name="u.sups" format="1">
  <advance width="341"/>
  <outline>
    <contour>
      <point x="178" y="644" type="line"/>
      <point x="90" y="639" type="line"/>
      <point x="86" y="565" type="line"/>
      <point x="60" y="404" type="line"/>
      <point x="59" y="392" type="line"/>
      <point x="58" y="357"/>
      <point x="87" y="330"/>
      <point x="132" y="324" type="curve"/>
      <point x="139" y="324" type="line"/>
      <point x="172" y="352"/>
      <point x="200" y="392"/>
      <point x="231" y="444" type="curve"/>
      <point x="252" y="444" type="line"/>
      <point x="265" y="552" type="line"/>
      <point x="213" y="457"/>
      <point x="177" y="408"/>
      <point x="159" y="408" type="curve" smooth="yes"/>
      <point x="151" y="408"/>
      <point x="144" y="417"/>
      <point x="144" y="433" type="curve"/>
      <point x="145" y="442" type="line"/>
      <point x="178" y="644" type="line"/>
    </contour>
    <contour>
      <point x="344" y="645" type="line"/>
      <point x="258" y="640" type="line"/>
      <point x="255" y="569" type="line"/>
      <point x="223" y="325" type="line"/>
      <point x="308" y="331" type="line"/>
      <point x="313" y="404" type="line"/>
      <point x="344" y="645" type="line"/>
    </contour>
    <contour>
      <point x="226" y="4" type="move" name="bottom"/>
    </contour>
    <contour>
      <point x="145" y="191" type="move" name="ogonek"/>
    </contour>
    <contour>
      <point x="119" y="183" type="move" name="top"/>
    </contour>
  </outline>
</glyph>
<glyph name="uni0066006A" format="1">
  <advance width="548"/>
  <outline>
    <contour>
      <point x="217" y="703"/>
      <point x="147" y="630"/>
      <point x="128" y="493" type="curve"/>
      <point x="90" y="190" type="line"/>
      <point x="47" y="-119" type="line"/>
      <point x="170" y="-110" type="line"/>
      <point x="174" y="-2" type="line"/>
      <point x="202" y="204" type="line"/>
      <point x="247" y="523" type="line"/>
      <point x="256" y="584"/>
      <point x="284" y="615"/>
      <point x="326" y="615" type="curve" smooth="yes"/>
      <point x="355" y="615"/>
      <point x="386" y="602"/>
      <point x="427" y="577" type="curve"/>
      <point x="444" y="582" type="line"/>
      <point x="474" y="672" type="line"/>
      <point x="470" y="681" type="line"/>
      <point x="348" y="703" type="line"/>
    </contour>
    <contour>
      <point x="51" y="455" type="line"/>
      <point x="42" y="389" type="line"/>
      <point x="48" y="381" type="line"/>
      <point x="449" y="381" type="line"/>
      <point x="458" y="445" type="line"/>
      <point x="450" y="455" type="line"/>
    </contour>
    <contour>
      <point x="387" y="451" type="line"/>
      <point x="383" y="356" type="line"/>
      <point x="337" y="19" type="line"/>
      <point x="460" y="113" type="line"/>
      <point x="508" y="464" type="line"/>
      <point x="502" y="471" type="line"/>
    </contour>
    <contour>
      <point x="337" y="19" type="line"/>
      <point x="329" y="-54"/>
      <point x="301" y="-93"/>
      <point x="246" y="-128" type="curve"/>
      <point x="245" y="-140" type="line"/>
      <point x="283" y="-195" type="line"/>
      <point x="390" y="-143"/>
      <point x="438" y="-81"/>
      <point x="451" y="24" type="curve"/>
      <point x="460" y="113" type="line"/>
    </contour>
  </outline>
</glyph>
<glyph name="zero.lf" format="1">
  <advance width="528"/>
  <outline>
    <contour>
      <point x="140" y="593"/>
      <point x="44" y="447"/>
      <point x="44" y="231" type="curve" smooth="yes"/>
      <point x="44" y="74"/>
      <point x="112" y="-9"/>
      <point x="235" y="-9" type="curve" smooth="yes"/>
      <point x="398" y="-9"/>
      <point x="495" y="138"/>
      <point x="495" y="354" type="curve" smooth="yes"/>
      <point x="495" y="511"/>
      <point x="426" y="593"/>
      <point x="308" y="593" type="curve" smooth="yes"/>
    </contour>
    <contour>
      <point x="361" y="473"/>
      <point x="392" y="425"/>
      <point x="392" y="329" type="curve" smooth="yes"/>
      <point x="392" y="190"/>
      <point x="345" y="105"/>
      <point x="247" y="105" type="curve" smooth="yes"/>
      <point x="177" y="105"/>
      <point x="148" y="155"/>
      <point x="148" y="250" type="curve" smooth="yes"/>
      <point x="148" y="388"/>
      <point x="191" y="473"/>
      <point x="290" y="473" type="curve" smooth="yes"/>
    </contour>
  </outline>
</glyph>
